<svg id="Layer_1" data-name="Layer 1" xmlns="http://www.w3.org/2000/svg" viewBox="0 0 45 35.89"><defs><style>.cls-1{fill:#a3a2a3;}.cls-2{fill:#fff;}</style></defs><path class="cls-1" d="M49.12,25.5c.15,0,.38.25.38.62V39.39c0,.37-.23.62-.38.62H45.44v3.34l-1.66-2.3-.75-1H24.88c-.15,0-.38-.25-.38-.62V26.12c0-.37.23-.62.38-.62H49.12m0-2.5H24.88A3,3,0,0,0,22,26.12V39.39a3,3,0,0,0,2.88,3.12H41.77L46,48.43a1,1,0,0,0,.85.46A1.13,1.13,0,0,0,48,47.7l0-5.19h1.17A3,3,0,0,0,52,39.39V26.12A3,3,0,0,0,49.12,23Z" transform="translate(-7 -13)"/><rect class="cls-1" x="1.25" y="1.25" width="32.5" height="20.5" rx="3.33"/><path class="cls-2" d="M37.42,15.5a2.08,2.08,0,0,1,2.08,2.08V31.42a2.08,2.08,0,0,1-2.08,2.08H11.58A2.08,2.08,0,0,1,9.5,31.42V17.58a2.08,2.08,0,0,1,2.08-2.08H37.42m0-2.5H11.58A4.58,4.58,0,0,0,7,17.58V31.42A4.58,4.58,0,0,0,11.58,36H37.42A4.58,4.58,0,0,0,42,31.42V17.58A4.58,4.58,0,0,0,37.42,13Z" transform="translate(-7 -13)"/><path class="cls-1" d="M15.17,39.42a.64.64,0,0,1-.64-.64l0-10.67a.65.65,0,0,1,.64-.64l10.67,0a.61.61,0,0,1,.58.39.62.62,0,0,1-.13.7L15.62,39.23a.66.66,0,0,1-.45.19Z" transform="translate(-7 -13)"/><path class="cls-1" d="M15.14,28l10.67,0a.12.12,0,0,1,.12.09.1.1,0,0,1,0,.14L15.26,38.87s-.06.05-.09.05a.14.14,0,0,1-.14-.14l0-10.67a.14.14,0,0,1,.14-.14h0m0-1A1.14,1.14,0,0,0,14,28.11l0,10.67a1.13,1.13,0,0,0,1.94.8L26.61,28.94a1.14,1.14,0,0,0-.8-1.94L15.14,27Z" transform="translate(-7 -13)"/><rect class="cls-2" x="10" y="10.54" width="3.46" height="3.46"/><rect class="cls-2" x="15.77" y="10.54" width="3.46" height="3.46"/><rect class="cls-2" x="21.54" y="10.54" width="3.46" height="3.46"/></svg>