<svg id="Layer_1" data-name="Layer 1" xmlns="http://www.w3.org/2000/svg" viewBox="0 0 48 48"><defs><style>.cls-1,.cls-2{fill:none;stroke:a3a2a3;stroke-width:2.5px;}.cls-1{stroke-linejoin:round;}.cls-2{stroke-miterlimit:10;}.cls-3{fill:none;}</style></defs><title>networks_icon</title><rect class="cls-1" x="5.47" y="1" width="37.17" height="30.67" rx="3.92" ry="3.92"/><path class="cls-1" d="M396.85,398.4H354.14c-1.4,0-2-1.49-1.4-3.24l3.48-9.95a3.19,3.19,0,0,1,2.72-2.14h33.22a3.16,3.16,0,0,1,2.71,2.14l3.4,9.95C398.87,396.91,398.25,398.4,396.85,398.4Z" transform="translate(-351.5 -351.4)"/><path class="cls-2" d="M371.78,372.21a5.27,5.27,0,0,1,7.44,0" transform="translate(-351.5 -351.4)"/><path class="cls-2" d="M368.42,368.86a10,10,0,0,1,14.17,0" transform="translate(-351.5 -351.4)"/><path class="cls-2" d="M365.28,365.73a14.48,14.48,0,0,1,20.43,0" transform="translate(-351.5 -351.4)"/><circle class="cls-3" cx="24" cy="23.14" r="0.86"/></svg>