<svg id="Layer_1" data-name="Layer 1" xmlns="http://www.w3.org/2000/svg" viewBox="0 0 48 33.87"><defs><style>.cls-1,.cls-2,.cls-3{fill:none;}.cls-1,.cls-2{stroke:#a3a2a3;stroke-linecap:round;stroke-linejoin:round;}.cls-1,.cls-3{stroke-width:2px;}.cls-3{stroke:#a3a2a3;stroke-miterlimit:10;}.cls-4{fill:#a3a2a3;}</style></defs><title>networks2_svg</title><rect class="cls-1" x="6.15" y="1" width="35.89" height="23.08"/><polyline class="cls-1" points="6.15 24.08 1 32.87 47 32.87 42.05 24.08"/><line class="cls-2" x1="19.08" y1="28.44" x2="29.84" y2="28.44"/><line class="cls-2" x1="8.31" y1="28.44" x2="9.83" y2="28.44"/><line class="cls-2" x1="13.3" y1="28.44" x2="14.82" y2="28.44"/><line class="cls-2" x1="33.26" y1="28.44" x2="34.78" y2="28.44"/><line class="cls-2" x1="38.25" y1="28.44" x2="39.77" y2="28.44"/><path class="cls-3" d="M23.43,25.68a5.27,5.27,0,0,1,7.44,0" transform="translate(-3.35 -9.33)"/><path class="cls-3" d="M20.07,22.33a10,10,0,0,1,14.14,0l0,0" transform="translate(-3.35 -9.33)"/><path class="cls-3" d="M16.93,19.2a14.48,14.48,0,0,1,20.43,0" transform="translate(-3.35 -9.33)"/><circle class="cls-4" cx="23.8" cy="18.68" r="0.86"/></svg>