<svg id="Layer_1" data-name="Layer 1" xmlns="http://www.w3.org/2000/svg" viewBox="0 0 48 44.23"><defs><style>.cls-1,.cls-2,.cls-3{fill:none;stroke:#000;}.cls-1,.cls-2{stroke-linecap:round;stroke-linejoin:round;}.cls-1,.cls-3{stroke-width:2px;}.cls-3{stroke-miterlimit:10;}</style></defs><title>software_svg</title><polyline class="cls-1" points="42.05 22.83 42.05 34.44 6.15 34.44 6.15 13.49 20.77 13.49"/><polyline class="cls-1" points="6.15 34.44 1 43.23 47 43.23 42.05 34.44"/><line class="cls-2" x1="19.08" y1="38.81" x2="29.84" y2="38.81"/><line class="cls-2" x1="8.31" y1="38.81" x2="9.83" y2="38.81"/><line class="cls-2" x1="13.3" y1="38.81" x2="14.82" y2="38.81"/><line class="cls-2" x1="33.26" y1="38.81" x2="34.78" y2="38.81"/><line class="cls-2" x1="38.25" y1="38.81" x2="39.77" y2="38.81"/><circle class="cls-3" cx="33.26" cy="13.49" r="12.49"/><circle class="cls-3" cx="33.26" cy="13.49" r="2.69"/><path class="cls-1" d="M376.39,365a6.59,6.59,0,0,1,5.94-6.55" transform="translate(-351.63 -353.24)"/><path class="cls-1" d="M379.17,365.88a4.49,4.49,0,0,1,4-4.47" transform="translate(-351.63 -353.24)"/></svg>